<?xml version="1.0" encoding="utf-8"?>
<!-- Generator: Adobe Illustrator 16.0.0, SVG Export Plug-In . SVG Version: 6.00 Build 0)  -->
<!DOCTYPE svg PUBLIC "-//W3C//DTD SVG 1.1//EN" "http://www.w3.org/Graphics/SVG/1.1/DTD/svg11.dtd">
<svg version="1.1" id="Capa_1" xmlns="http://www.w3.org/2000/svg" xmlns:xlink="http://www.w3.org/1999/xlink" x="0px" y="0px"
	 width="337px" height="159px" viewBox="0 0 337 159" enable-background="new 0 0 337 159" xml:space="preserve">
<g>
	<path fill="#005195" d="M268.4,48h-16.2c-5.2,0-9.6-4.1-9.6-9.6c0-5,3.7-9.6,9.6-9.7h16.2l0,0V16.1H248c-12.4,0-22.4,10-22.4,22.4
		C225.5,51,235.6,61,248,61h20.4V48z"/>
</g>
<g>
	<g>
		<path fill="#005195" d="M323.3,16.1h-31.5c-12.4,0-22.5,10.1-22.5,22.4c0,12.4,10.1,22.5,22.5,22.5h11.7V48h-7.7
			c-5,0-9.3-4.4-9.3-9.7c0-5,4.1-9.6,9.3-9.6h11.1V61h16.5L323.3,16.1z"/>
	</g>
</g>
<path fill="#005195" d="M147.3,48h-23.3c-5.3,0-9.6-4.3-9.6-9.6c0-5.3,4.3-9.7,9.6-9.7h8.3l-9.6,16.1h16.2l8.5-16V16.1l-0.1,0h-27.5
	c-12.4,0-22.5,10-22.5,22.4C97.2,51,107.2,61,119.6,61h27.7L147.3,48z"/>
<g>
	<path fill="#005195" d="M186.2,48h-10.5c-5.3,0-9.7-4.4-9.7-9.7c0-5.3,4.3-9.6,9.7-9.6h7.2l0-0.1V16.1h-11.6
		c-12.4,0-22.4,10-22.4,22.4c0,12.4,10.1,22.4,22.4,22.4h31.4V4.5h-16.4V48z"/>
</g>
<g>
	<polygon fill="#005195" points="206.3,61 222.7,61 222.7,19.3 206.3,19.3 	"/>
</g>
<rect x="206.2" y="4.5" fill="#005195" width="16.6" height="11.6"/>
<g>
	<polygon fill="#005195" points="129.5,12.8 143.4,12.8 147.7,4.5 133.8,4.5 	"/>
</g>
<path fill="#005195" d="M7.1,61h17.3V19.6h12.8c2.6,0,4.8,2.1,4.8,4.8V61h17.3V19.6h12.8c2.6,0,4.8,2.1,4.8,4.8V61l17.2,0V21.1
	c0-9-7.3-16.6-16.3-16.6l-23.2,0v5.9c-1.7-3.5-5.3-5.9-9.4-5.9H7.1V61z"/>
<g>
	<path fill="#005195" d="M313,119.9V91.6c0-1.9,1.3-3.8,3.9-3.8h6.2V75.2h-18.8c-5,0-7.7,4.3-7.7,7.8v37H313z"/>
</g>
<g>
	<path fill="#005195" d="M292.9,119.9V75.2h-16.4v31.1h-9.1c-2.2,0-4.1-1.8-4.1-4V75.2h-0.1H247v36.9c0,4.7,3.6,7.8,8.4,7.8
		L292.9,119.9z"/>
</g>
<rect x="7.2" y="105.4" fill="#005195" width="190.9" height="14.6"/>
<g>
	<rect x="7.2" y="90.8" fill="#9F9E9F" width="190.9" height="7.3"/>
</g>
<g>
	<path fill="#005195" d="M202.6,105.4v14.6h10c17.5,0,31.7-10.8,31.7-24.2c0-9.6-6.7-18.5-17-22.8l-1-0.4c-2.6-0.6-3.2-1.7-3.5-3.4
		c-0.1-0.4,0-4.2,0-4.2h-16.4h0v4.8c0,8.4,3.5,12.8,9.6,14.2l0.1,0c6.5,0.8,10.9,5.6,10.9,10.7c0,6-4.7,10.1-13.7,10.7h-10.5
		L202.6,105.4z"/>
</g>
<path fill="#005195" d="M324.1,115.7c0-2.3,1.7-4,4-4c2.2,0,3.9,1.7,3.9,4c0,2.3-1.7,4.1-3.9,4.1C325.8,119.7,324.1,118,324.1,115.7
	z M328,120.5c2.6,0,4.9-2.1,4.9-4.9c0-2.8-2.3-4.8-4.9-4.8c-2.7,0-4.9,2.1-4.9,4.8C323.1,118.5,325.3,120.5,328,120.5z M327,116.1h1
	l1.5,2.4h0.9l-1.6-2.5c0.8-0.1,1.5-0.5,1.5-1.5c0-1.1-0.7-1.6-2-1.6h-2.1v5.6h0.8V116.1z M327,115.3v-1.7h1.2c0.6,0,1.2,0.1,1.2,0.8
	c0,0.9-0.6,0.9-1.4,0.9H327z"/>
<path fill="#005195" d="M327.3,148.2c0-1.5,1.1-2.6,2.5-2.6c1.4,0,2.5,1.1,2.5,2.6c0,1.5-1.1,2.6-2.5,2.6
	C328.4,150.8,327.3,149.7,327.3,148.2z M329.8,151.3c1.7,0,3.1-1.3,3.1-3.1c0-1.8-1.4-3.1-3.1-3.1c-1.7,0-3.1,1.3-3.1,3.1
	C326.6,150,328.1,151.3,329.8,151.3z M329.1,148.5h0.6l0.9,1.5h0.6l-1-1.6c0.5-0.1,0.9-0.3,0.9-1c0-0.7-0.4-1-1.3-1h-1.4v3.6h0.5
	V148.5z M329.1,148v-1.1h0.7c0.4,0,0.8,0.1,0.8,0.5c0,0.5-0.4,0.6-0.9,0.6H329.1z"/>
<path fill="#005195" d="M7.2,150.9v-15.1h8.8v1.8h-7v4.1h6.5v1.8H9.1v5.6h7v1.8H7.2z"/>
<path fill="#005195" d="M26.7,150.9h-2.2l-2.6-4.2l-2.6,4.2h-2l3.6-5.6l-3.6-5.7h2.2l2.6,4.3l2.6-4.3h2l-3.6,5.6L26.7,150.9z"/>
<path fill="#005195" d="M32.8,151.1c-0.7,0-1.4-0.1-2-0.4c-0.6-0.2-1.1-0.6-1.6-1.1c-0.4-0.5-0.8-1.1-1-1.8
	c-0.2-0.7-0.4-1.6-0.4-2.6c0-1,0.1-1.9,0.4-2.6c0.2-0.7,0.6-1.3,1-1.8c0.4-0.5,0.9-0.9,1.6-1.1c0.6-0.3,1.3-0.4,2-0.4
	c0.6,0,1.1,0.1,1.7,0.3c0.5,0.2,1,0.4,1.5,0.6v2.1h-0.1c-0.1-0.1-0.3-0.2-0.5-0.4c-0.2-0.1-0.4-0.3-0.7-0.4
	c-0.3-0.1-0.5-0.2-0.9-0.3c-0.3-0.1-0.7-0.1-1-0.1c-0.9,0-1.7,0.4-2.2,1.1c-0.6,0.7-0.8,1.8-0.8,3.2c0,1.3,0.3,2.4,0.8,3.1
	c0.5,0.7,1.3,1.1,2.2,1.1c0.6,0,1.1-0.1,1.7-0.4c0.5-0.2,1-0.6,1.4-1h0.1v2.1c-0.2,0.1-0.4,0.2-0.7,0.3c-0.3,0.1-0.5,0.2-0.7,0.3
	c-0.3,0.1-0.6,0.2-0.8,0.2C33.5,151.1,33.1,151.1,32.8,151.1z"/>
<path fill="#005195" d="M39.1,143.9c0-0.5,0.1-0.9,0.3-1.3c0.1-0.4,0.3-0.7,0.6-1c0.3-0.3,0.6-0.5,0.9-0.7c0.3-0.2,0.7-0.2,1.2-0.2
	c0.5,0,0.9,0.1,1.2,0.2c0.3,0.1,0.6,0.4,0.8,0.7c0.2,0.3,0.3,0.6,0.4,1c0.1,0.4,0.2,0.8,0.2,1.4H39.1z M43.7,151
	c0.3-0.1,0.6-0.1,0.9-0.2c0.2-0.1,0.5-0.2,0.8-0.3c0.3-0.1,0.6-0.2,0.8-0.3v-2.1h-0.1c-0.1,0.1-0.3,0.3-0.5,0.4
	c-0.2,0.1-0.5,0.3-0.8,0.4c-0.3,0.1-0.6,0.3-1,0.4c-0.4,0.1-0.8,0.1-1.2,0.1c-1.1,0-2-0.3-2.6-1c-0.6-0.7-0.9-1.7-0.9-3h7.3v-1
	c0-0.9-0.1-1.7-0.3-2.3c-0.2-0.6-0.5-1.2-0.9-1.6c-0.4-0.4-0.8-0.8-1.3-1c-0.5-0.2-1.1-0.3-1.7-0.3c-1.5,0-2.6,0.5-3.5,1.6
	c-0.9,1.1-1.3,2.6-1.3,4.4c0,1.9,0.5,3.3,1.4,4.3c0.9,1,2.2,1.5,3.9,1.5C43.1,151.1,43.4,151.1,43.7,151z"/>
<path fill="#005195" d="M50.7,150.9H49v-15.8h1.8V150.9z"/>
<path fill="#005195" d="M54.9,143.9c0-0.5,0.1-0.9,0.3-1.3c0.1-0.4,0.3-0.7,0.6-1c0.3-0.3,0.6-0.5,0.9-0.7c0.3-0.2,0.7-0.2,1.2-0.2
	c0.5,0,0.9,0.1,1.2,0.2c0.3,0.1,0.6,0.4,0.8,0.7c0.2,0.3,0.3,0.6,0.4,1c0.1,0.4,0.2,0.8,0.2,1.4H54.9z M59.5,151
	c0.3-0.1,0.6-0.1,0.9-0.2c0.2-0.1,0.5-0.2,0.8-0.3c0.3-0.1,0.6-0.2,0.8-0.3v-2.1H62c-0.1,0.1-0.3,0.3-0.5,0.4
	c-0.2,0.1-0.5,0.3-0.8,0.4c-0.3,0.1-0.6,0.3-1,0.4c-0.4,0.1-0.8,0.1-1.2,0.1c-1.1,0-2-0.3-2.6-1c-0.6-0.7-0.9-1.7-0.9-3h7.3v-1
	c0-0.9-0.1-1.7-0.3-2.3c-0.2-0.6-0.5-1.2-0.9-1.6c-0.4-0.4-0.8-0.8-1.3-1c-0.5-0.2-1.1-0.3-1.7-0.3c-1.5,0-2.6,0.5-3.5,1.6
	c-0.9,1.1-1.3,2.6-1.3,4.4c0,1.9,0.5,3.3,1.4,4.3c0.9,1,2.2,1.5,3.9,1.5C58.9,151.1,59.3,151.1,59.5,151z"/>
<path fill="#005195" d="M73,150.9h-1.8v-6.4c0-0.5,0-1-0.1-1.5c0-0.4-0.1-0.8-0.3-1.1c-0.1-0.3-0.3-0.5-0.6-0.6
	c-0.3-0.1-0.6-0.2-1.1-0.2c-0.4,0-0.9,0.1-1.4,0.4c-0.5,0.3-0.9,0.6-1.4,1v8.4h-1.8v-11.3h1.8v1.3c0.5-0.5,1-0.9,1.6-1.2
	c0.5-0.3,1.1-0.4,1.6-0.4c1,0,1.8,0.4,2.4,1.1c0.6,0.7,0.9,1.8,0.9,3.2V150.9z"/>
<path fill="#005195" d="M80.3,151.1c-0.7,0-1.4-0.1-2-0.4c-0.6-0.2-1.1-0.6-1.6-1.1c-0.4-0.5-0.8-1.1-1-1.8
	c-0.2-0.7-0.4-1.6-0.4-2.6c0-1,0.1-1.9,0.4-2.6c0.3-0.7,0.6-1.3,1-1.8c0.4-0.5,0.9-0.9,1.6-1.1c0.6-0.3,1.3-0.4,2-0.4
	c0.6,0,1.1,0.1,1.7,0.3c0.5,0.2,1,0.4,1.4,0.6v2.1h-0.1c-0.1-0.1-0.3-0.2-0.5-0.4c-0.2-0.1-0.4-0.3-0.7-0.4
	c-0.3-0.1-0.5-0.2-0.9-0.3c-0.3-0.1-0.7-0.1-1-0.1c-0.9,0-1.7,0.4-2.2,1.1c-0.6,0.7-0.8,1.8-0.8,3.2c0,1.3,0.3,2.4,0.8,3.1
	c0.5,0.7,1.3,1.1,2.3,1.1c0.6,0,1.1-0.1,1.7-0.4c0.5-0.2,1-0.6,1.4-1h0.1v2.1c-0.2,0.1-0.4,0.2-0.7,0.3c-0.3,0.1-0.5,0.2-0.7,0.3
	c-0.3,0.1-0.6,0.2-0.8,0.2C81,151.1,80.7,151.1,80.3,151.1z"/>
<path fill="#005195" d="M87.5,150.9h-1.8v-11.3h1.8V150.9z M87.6,137.6h-2v-2h2V137.6z"/>
<path fill="#005195" d="M95.3,149c-0.5,0.3-1,0.4-1.5,0.4c-0.7,0-1.1-0.2-1.5-0.5c-0.3-0.3-0.5-0.8-0.5-1.5c0-0.6,0.2-1,0.5-1.3
	c0.3-0.3,0.7-0.6,1.2-0.7c0.4-0.1,0.9-0.2,1.6-0.3c0.6-0.1,1.2-0.1,1.6-0.2v3.2C96.2,148.4,95.7,148.8,95.3,149z M96.5,150.9h1.8
	v-7.8c0-0.7-0.1-1.3-0.3-1.8c-0.2-0.5-0.5-0.9-0.8-1.2c-0.4-0.3-0.8-0.5-1.3-0.7c-0.5-0.1-1.1-0.2-1.8-0.2c-0.6,0-1.2,0.1-1.8,0.2
	c-0.6,0.1-1.1,0.2-1.4,0.3v1.9h0.1c0.6-0.2,1.1-0.4,1.7-0.6c0.6-0.1,1-0.2,1.4-0.2c0.3,0,0.7,0,1,0.1c0.3,0,0.6,0.2,0.8,0.3
	c0.2,0.1,0.4,0.4,0.5,0.6c0.1,0.3,0.2,0.6,0.2,1.1v0.4c-0.9,0.1-1.8,0.1-2.6,0.2c-0.8,0.1-1.5,0.3-2.1,0.6c-0.7,0.3-1.1,0.8-1.5,1.3
	c-0.3,0.5-0.5,1.2-0.5,2c0,0.5,0.1,1,0.3,1.5c0.2,0.5,0.4,0.8,0.7,1.2c0.3,0.3,0.6,0.6,1,0.7c0.4,0.2,0.8,0.3,1.2,0.3
	c0.5,0,0.9,0,1.2-0.1c0.3-0.1,0.6-0.2,0.9-0.4c0.2-0.1,0.5-0.3,0.7-0.5c0.2-0.2,0.4-0.4,0.6-0.5V150.9z"/>
<path fill="#005195" d="M120.1,150.9v-6.5c0-0.5,0-1-0.1-1.4c0-0.4-0.1-0.8-0.2-1c-0.1-0.3-0.3-0.5-0.5-0.6c-0.2-0.1-0.6-0.2-1-0.2
	c-0.4,0-0.8,0.1-1.2,0.4c-0.4,0.2-0.9,0.6-1.3,1c0,0.1,0,0.3,0,0.4c0,0.2,0,0.3,0,0.6v7.5h-1.8v-6.5c0-0.5,0-1-0.1-1.4
	c0-0.4-0.1-0.8-0.2-1c-0.1-0.3-0.3-0.5-0.5-0.6c-0.2-0.1-0.6-0.2-0.9-0.2c-0.4,0-0.8,0.1-1.2,0.4c-0.4,0.3-0.8,0.6-1.2,1v8.5h-1.8
	v-11.3h1.8v1.3c0.5-0.5,0.9-0.9,1.4-1.2c0.5-0.3,1-0.4,1.5-0.4c0.6,0,1.2,0.2,1.7,0.5c0.5,0.3,0.9,0.8,1.1,1.5
	c0.5-0.6,1.1-1.1,1.6-1.5c0.5-0.3,1.1-0.5,1.7-0.5c0.5,0,0.9,0.1,1.2,0.2s0.7,0.4,1,0.7c0.3,0.3,0.5,0.8,0.7,1.3
	c0.2,0.5,0.2,1.2,0.2,1.9v7.5H120.1z"/>
<path fill="#005195" d="M126,143.9c0-0.5,0.1-0.9,0.3-1.3c0.1-0.4,0.3-0.7,0.6-1c0.3-0.3,0.6-0.5,0.9-0.7c0.3-0.2,0.7-0.2,1.2-0.2
	c0.5,0,0.9,0.1,1.2,0.2c0.3,0.1,0.6,0.4,0.8,0.7c0.2,0.3,0.3,0.6,0.4,1c0.1,0.4,0.2,0.8,0.2,1.4H126z M130.6,151
	c0.3-0.1,0.6-0.1,0.9-0.2c0.2-0.1,0.5-0.2,0.8-0.3c0.3-0.1,0.6-0.2,0.8-0.3v-2.1H133c-0.1,0.1-0.3,0.3-0.5,0.4
	c-0.2,0.1-0.5,0.3-0.8,0.4c-0.3,0.1-0.6,0.3-1,0.4c-0.4,0.1-0.8,0.1-1.2,0.1c-1.1,0-2-0.3-2.6-1c-0.6-0.7-0.9-1.7-0.9-3h7.3v-1
	c0-0.9-0.1-1.7-0.3-2.3c-0.2-0.6-0.5-1.2-0.9-1.6c-0.4-0.4-0.8-0.8-1.3-1c-0.5-0.2-1.1-0.3-1.7-0.3c-1.5,0-2.6,0.5-3.5,1.6
	c-0.9,1.1-1.3,2.6-1.3,4.4c0,1.9,0.5,3.3,1.4,4.3c0.9,1,2.2,1.5,3.9,1.5C129.9,151.1,130.3,151.1,130.6,151z M129.7,133.9l-1.7,3.8
	h1.4l2.6-3.8H129.7z"/>
<path fill="#005195" d="M140.8,149c-0.5,0.2-0.9,0.3-1.4,0.3c-0.9,0-1.5-0.4-1.9-1.1c-0.4-0.7-0.6-1.7-0.6-3c0-1.4,0.3-2.4,0.8-3.2
	c0.5-0.7,1.2-1.1,2.2-1.1c0.4,0,0.8,0,1.1,0.1c0.4,0.1,0.7,0.2,1.2,0.5v6.5C141.7,148.5,141.2,148.8,140.8,149z M143.8,135.1h-1.8
	v4.9c-0.4-0.3-0.9-0.5-1.2-0.6c-0.4-0.1-0.9-0.2-1.4-0.2c-0.6,0-1.2,0.1-1.7,0.4c-0.5,0.3-1,0.7-1.4,1.2c-0.4,0.5-0.8,1.2-1,1.9
	s-0.4,1.6-0.4,2.6c0,1,0.1,1.8,0.3,2.5c0.2,0.7,0.5,1.3,0.8,1.9c0.3,0.5,0.8,0.9,1.3,1.1c0.5,0.3,1,0.4,1.6,0.4c0.4,0,0.7,0,0.9-0.1
	c0.3-0.1,0.5-0.2,0.8-0.3c0.3-0.1,0.5-0.3,0.7-0.4c0.2-0.2,0.4-0.4,0.7-0.6v1.2h1.8V135.1z"/>
<path fill="#005195" d="M148.8,150.9h-1.8v-11.3h1.8V150.9z M149,137.6h-2v-2h2V137.6z"/>
<path fill="#005195" d="M156.3,151.1c-0.7,0-1.4-0.1-2-0.4c-0.6-0.2-1.1-0.6-1.6-1.1c-0.4-0.5-0.8-1.1-1-1.8
	c-0.2-0.7-0.4-1.6-0.4-2.6c0-1,0.1-1.9,0.4-2.6c0.3-0.7,0.6-1.3,1-1.8c0.4-0.5,0.9-0.9,1.6-1.1c0.6-0.3,1.3-0.4,2-0.4
	c0.6,0,1.1,0.1,1.7,0.3c0.5,0.2,1,0.4,1.4,0.6v2.1h-0.1c-0.1-0.1-0.3-0.2-0.5-0.4c-0.2-0.1-0.4-0.3-0.7-0.4
	c-0.3-0.1-0.5-0.2-0.9-0.3c-0.3-0.1-0.7-0.1-1-0.1c-0.9,0-1.7,0.4-2.2,1.1c-0.6,0.7-0.8,1.8-0.8,3.2c0,1.3,0.3,2.4,0.8,3.1
	c0.5,0.7,1.3,1.1,2.3,1.1c0.6,0,1.1-0.1,1.7-0.4c0.5-0.2,1-0.6,1.4-1h0.1v2.1c-0.2,0.1-0.4,0.2-0.7,0.3c-0.3,0.1-0.5,0.2-0.7,0.3
	c-0.3,0.1-0.6,0.2-0.8,0.2C156.9,151.1,156.6,151.1,156.3,151.1z"/>
<path fill="#005195" d="M166.2,149c-0.5,0.3-1,0.4-1.5,0.4c-0.7,0-1.2-0.2-1.5-0.5c-0.3-0.3-0.5-0.8-0.5-1.5c0-0.6,0.2-1,0.5-1.3
	c0.3-0.3,0.7-0.6,1.2-0.7c0.4-0.1,0.9-0.2,1.6-0.3c0.6-0.1,1.2-0.1,1.6-0.2v3.2C167.1,148.4,166.6,148.8,166.2,149z M167.5,150.9
	h1.8v-7.8c0-0.7-0.1-1.3-0.3-1.8c-0.2-0.5-0.5-0.9-0.8-1.2c-0.4-0.3-0.8-0.5-1.3-0.7c-0.5-0.1-1.1-0.2-1.8-0.2
	c-0.6,0-1.2,0.1-1.8,0.2c-0.6,0.1-1.1,0.2-1.4,0.3v1.9h0.1c0.6-0.2,1.1-0.4,1.7-0.6c0.6-0.1,1-0.2,1.4-0.2c0.3,0,0.7,0,1,0.1
	c0.3,0,0.6,0.2,0.8,0.3c0.2,0.1,0.4,0.4,0.5,0.6c0.1,0.3,0.2,0.6,0.2,1.1v0.4c-0.9,0.1-1.8,0.1-2.6,0.2c-0.8,0.1-1.5,0.3-2.1,0.6
	c-0.7,0.3-1.1,0.8-1.5,1.3c-0.3,0.5-0.5,1.2-0.5,2c0,0.5,0.1,1,0.3,1.5c0.2,0.5,0.4,0.8,0.7,1.2c0.3,0.3,0.6,0.6,1,0.7
	c0.4,0.2,0.8,0.3,1.2,0.3c0.5,0,0.9,0,1.2-0.1c0.3-0.1,0.6-0.2,0.9-0.4c0.2-0.1,0.5-0.3,0.7-0.5c0.2-0.2,0.4-0.4,0.6-0.5V150.9z"/>
<path fill="#005195" d="M175.8,147.9l-2.6,6.6h-1.4l1.7-6.6H175.8z"/>
<path fill="#005195" d="M189.7,151.1c-0.7,0-1.4-0.1-2-0.4c-0.6-0.2-1.1-0.6-1.6-1.1c-0.4-0.5-0.8-1.1-1-1.8
	c-0.2-0.7-0.4-1.6-0.4-2.6c0-1,0.1-1.9,0.4-2.6c0.2-0.7,0.6-1.3,1-1.8c0.4-0.5,0.9-0.9,1.6-1.1c0.6-0.3,1.3-0.4,2-0.4
	c0.6,0,1.1,0.1,1.7,0.3c0.5,0.2,1,0.4,1.5,0.6v2.1h-0.1c-0.1-0.1-0.3-0.2-0.5-0.4c-0.2-0.1-0.4-0.3-0.7-0.4
	c-0.3-0.1-0.5-0.2-0.9-0.3c-0.3-0.1-0.7-0.1-1-0.1c-0.9,0-1.7,0.4-2.2,1.1c-0.6,0.7-0.8,1.8-0.8,3.2c0,1.3,0.3,2.4,0.8,3.1
	c0.5,0.7,1.3,1.1,2.2,1.1c0.6,0,1.1-0.1,1.7-0.4c0.5-0.2,1-0.6,1.4-1h0.1v2.1c-0.2,0.1-0.4,0.2-0.7,0.3c-0.3,0.1-0.5,0.2-0.7,0.3
	c-0.3,0.1-0.6,0.2-0.8,0.2C190.4,151.1,190.1,151.1,189.7,151.1z"/>
<path fill="#005195" d="M199.6,149c-0.5,0.3-1,0.4-1.5,0.4c-0.7,0-1.1-0.2-1.5-0.5c-0.3-0.3-0.5-0.8-0.5-1.5c0-0.6,0.2-1,0.5-1.3
	c0.3-0.3,0.7-0.6,1.2-0.7c0.4-0.1,0.9-0.2,1.6-0.3c0.6-0.1,1.2-0.1,1.6-0.2v3.2C200.5,148.4,200.1,148.8,199.6,149z M200.9,150.9
	h1.8v-7.8c0-0.7-0.1-1.3-0.3-1.8c-0.2-0.5-0.5-0.9-0.8-1.2c-0.4-0.3-0.8-0.5-1.3-0.7c-0.5-0.1-1.1-0.2-1.8-0.2
	c-0.6,0-1.2,0.1-1.8,0.2c-0.6,0.1-1.1,0.2-1.4,0.3v1.9h0.1c0.6-0.2,1.1-0.4,1.7-0.6c0.5-0.1,1-0.2,1.4-0.2c0.3,0,0.7,0,1,0.1
	c0.3,0,0.6,0.2,0.8,0.3c0.2,0.1,0.4,0.4,0.5,0.6c0.1,0.3,0.2,0.6,0.2,1.1v0.4c-0.9,0.1-1.8,0.1-2.6,0.2c-0.8,0.1-1.5,0.3-2.1,0.6
	c-0.7,0.3-1.1,0.8-1.5,1.3c-0.3,0.5-0.5,1.2-0.5,2c0,0.5,0.1,1,0.3,1.5c0.2,0.5,0.4,0.8,0.7,1.2c0.3,0.3,0.6,0.6,1,0.7
	c0.4,0.2,0.8,0.3,1.2,0.3c0.5,0,0.9,0,1.2-0.1c0.3-0.1,0.6-0.2,0.9-0.4c0.2-0.1,0.5-0.3,0.7-0.5c0.2-0.2,0.4-0.4,0.6-0.5V150.9z"/>
<path fill="#005195" d="M207.6,150.9h-1.8v-15.8h1.8V150.9z"/>
<path fill="#005195" d="M212.6,150.9h-1.8v-11.3h1.8V150.9z M212.8,137.6h-2v-2h2V137.6z"/>
<path fill="#005195" d="M220.9,149c-0.5,0.2-0.9,0.3-1.4,0.3c-0.9,0-1.5-0.4-1.9-1.1c-0.4-0.7-0.6-1.7-0.6-3c0-1.4,0.3-2.4,0.8-3.2
	c0.5-0.7,1.2-1.1,2.2-1.1c0.4,0,0.8,0,1.1,0.1c0.4,0.1,0.7,0.2,1.2,0.5v6.5C221.8,148.5,221.4,148.8,220.9,149z M224,135.1h-1.8v4.9
	c-0.4-0.3-0.9-0.5-1.2-0.6c-0.4-0.1-0.9-0.2-1.4-0.2c-0.6,0-1.2,0.1-1.7,0.4c-0.5,0.3-1,0.7-1.4,1.2c-0.4,0.5-0.8,1.2-1,1.9
	s-0.4,1.6-0.4,2.6c0,1,0.1,1.8,0.3,2.5c0.2,0.7,0.5,1.3,0.8,1.9c0.3,0.5,0.8,0.9,1.3,1.1c0.5,0.3,1,0.4,1.6,0.4c0.4,0,0.7,0,0.9-0.1
	c0.3-0.1,0.5-0.2,0.8-0.3c0.3-0.1,0.5-0.3,0.7-0.4c0.2-0.2,0.4-0.4,0.7-0.6v1.2h1.8V135.1z"/>
<path fill="#005195" d="M228.2,143.9c0-0.5,0.1-0.9,0.3-1.3c0.1-0.4,0.3-0.7,0.6-1c0.3-0.3,0.6-0.5,0.9-0.7s0.7-0.2,1.2-0.2
	c0.5,0,0.9,0.1,1.2,0.2c0.3,0.1,0.6,0.4,0.8,0.7c0.2,0.3,0.3,0.6,0.4,1c0.1,0.4,0.2,0.8,0.2,1.4H228.2z M232.8,151
	c0.3-0.1,0.6-0.1,0.9-0.2c0.2-0.1,0.5-0.2,0.8-0.3c0.3-0.1,0.6-0.2,0.8-0.3v-2.1h-0.1c-0.1,0.1-0.3,0.3-0.5,0.4
	c-0.2,0.1-0.5,0.3-0.8,0.4c-0.3,0.1-0.6,0.3-1,0.4c-0.4,0.1-0.8,0.1-1.2,0.1c-1.1,0-2-0.3-2.6-1c-0.6-0.7-0.9-1.7-0.9-3h7.3v-1
	c0-0.9-0.1-1.7-0.3-2.3c-0.2-0.6-0.5-1.2-0.9-1.6c-0.4-0.4-0.8-0.8-1.3-1s-1.1-0.3-1.7-0.3c-1.4,0-2.6,0.5-3.5,1.6
	c-0.9,1.1-1.3,2.6-1.3,4.4c0,1.9,0.5,3.3,1.4,4.3c0.9,1,2.2,1.5,3.9,1.5C232.1,151.1,232.5,151.1,232.8,151z"/>
<path fill="#005195" d="M244.9,150.9h-7.8v-1.4l5.5-8.3h-5.3v-1.6h7.4v1.4l-5.5,8.4h5.6V150.9z"/>
<path fill="#005195" d="M262.1,150.9h-1.8v-6.4c0-0.5,0-1-0.1-1.5c0-0.4-0.1-0.8-0.3-1.1c-0.1-0.3-0.3-0.5-0.6-0.6
	c-0.3-0.1-0.6-0.2-1.1-0.2s-0.9,0.1-1.4,0.4c-0.5,0.3-0.9,0.6-1.4,1v8.4h-1.8v-15.8h1.8v5.7c0.5-0.5,1-0.9,1.6-1.2
	c0.5-0.3,1.1-0.4,1.6-0.4c1,0,1.9,0.4,2.4,1.1c0.6,0.7,0.9,1.8,0.9,3.2V150.9z"/>
<path fill="#005195" d="M273.4,150.9h-1.8v-1.3c-0.5,0.5-1.1,0.9-1.6,1.2c-0.5,0.3-1,0.4-1.6,0.4c-0.5,0-0.9-0.1-1.3-0.2
	c-0.4-0.2-0.8-0.4-1.1-0.8c-0.3-0.4-0.5-0.8-0.7-1.3c-0.2-0.5-0.2-1.2-0.2-1.9v-7.4h1.8v6.4c0,0.6,0,1.1,0.1,1.5
	c0,0.4,0.1,0.7,0.3,1c0.1,0.3,0.3,0.5,0.6,0.6c0.2,0.1,0.6,0.2,1.1,0.2c0.4,0,0.9-0.1,1.4-0.4c0.5-0.3,0.9-0.6,1.3-1v-8.5h1.8V150.9
	z"/>
<path fill="#005195" d="M288.6,150.9v-6.5c0-0.5,0-1-0.1-1.4c0-0.4-0.1-0.8-0.2-1c-0.1-0.3-0.3-0.5-0.5-0.6c-0.2-0.1-0.6-0.2-1-0.2
	c-0.4,0-0.8,0.1-1.2,0.4s-0.9,0.6-1.3,1c0,0.1,0,0.3,0,0.4c0,0.2,0,0.3,0,0.6v7.5h-1.8v-6.5c0-0.5,0-1-0.1-1.4c0-0.4-0.1-0.8-0.2-1
	c-0.1-0.3-0.3-0.5-0.5-0.6c-0.2-0.1-0.5-0.2-0.9-0.2c-0.4,0-0.8,0.1-1.2,0.4c-0.4,0.3-0.8,0.6-1.2,1v8.5h-1.8v-11.3h1.8v1.3
	c0.5-0.5,0.9-0.9,1.4-1.2c0.5-0.3,1-0.4,1.5-0.4c0.6,0,1.2,0.2,1.7,0.5c0.5,0.3,0.9,0.8,1.1,1.5c0.5-0.6,1.1-1.1,1.6-1.5
	c0.5-0.3,1.1-0.5,1.7-0.5c0.5,0,0.9,0.1,1.2,0.2c0.4,0.2,0.7,0.4,1,0.7c0.3,0.3,0.5,0.8,0.7,1.3c0.2,0.5,0.2,1.2,0.2,1.9v7.5H288.6z
	"/>
<path fill="#005195" d="M298,149c-0.5,0.3-1,0.4-1.5,0.4c-0.7,0-1.1-0.2-1.5-0.5c-0.3-0.3-0.5-0.8-0.5-1.5c0-0.6,0.2-1,0.5-1.3
	c0.3-0.3,0.7-0.6,1.2-0.7c0.4-0.1,0.9-0.2,1.6-0.3c0.6-0.1,1.2-0.1,1.6-0.2v3.2C298.9,148.4,298.5,148.8,298,149z M299.3,150.9h1.8
	v-7.8c0-0.7-0.1-1.3-0.3-1.8c-0.2-0.5-0.5-0.9-0.8-1.2c-0.4-0.3-0.8-0.5-1.3-0.7c-0.5-0.1-1.1-0.2-1.8-0.2c-0.6,0-1.2,0.1-1.8,0.2
	c-0.6,0.1-1.1,0.2-1.4,0.3v1.9h0.1c0.5-0.2,1.1-0.4,1.7-0.6c0.5-0.1,1-0.2,1.4-0.2c0.3,0,0.7,0,1,0.1c0.3,0,0.6,0.2,0.8,0.3
	c0.2,0.1,0.4,0.4,0.5,0.6c0.1,0.3,0.2,0.6,0.2,1.1v0.4c-0.9,0.1-1.8,0.1-2.6,0.2c-0.8,0.1-1.5,0.3-2.1,0.6c-0.7,0.3-1.1,0.8-1.5,1.3
	c-0.3,0.5-0.5,1.2-0.5,2c0,0.5,0.1,1,0.3,1.5c0.2,0.5,0.4,0.8,0.7,1.2c0.3,0.3,0.6,0.6,1,0.7c0.4,0.2,0.8,0.3,1.2,0.3
	c0.5,0,0.9,0,1.2-0.1c0.3-0.1,0.6-0.2,0.9-0.4c0.2-0.1,0.5-0.3,0.7-0.5c0.2-0.2,0.4-0.4,0.6-0.5V150.9z"/>
<path fill="#005195" d="M312.4,150.9h-1.8v-6.4c0-0.5,0-1-0.1-1.5c0-0.4-0.1-0.8-0.3-1.1c-0.1-0.3-0.3-0.5-0.6-0.6
	c-0.3-0.1-0.6-0.2-1.1-0.2c-0.4,0-0.9,0.1-1.4,0.4c-0.5,0.3-0.9,0.6-1.4,1v8.4h-1.8v-11.3h1.8v1.3c0.5-0.5,1-0.9,1.6-1.2
	c0.5-0.3,1.1-0.4,1.6-0.4c1,0,1.8,0.4,2.4,1.1c0.6,0.7,0.9,1.8,0.9,3.2V150.9z"/>
<path fill="#005195" d="M320,149.2c-0.5,0.3-1,0.4-1.5,0.4c-0.7,0-1.2-0.2-1.5-0.5c-0.3-0.3-0.5-0.8-0.5-1.5c0-0.6,0.2-1,0.5-1.3
	c0.3-0.3,0.7-0.6,1.2-0.7c0.4-0.1,0.9-0.2,1.6-0.3c0.6-0.1,1.2-0.1,1.6-0.2v3.2C320.9,148.6,320.5,148.9,320,149.2z M321.3,151h1.8
	v-7.8c0-0.7-0.1-1.3-0.3-1.8c-0.2-0.5-0.5-0.9-0.8-1.2c-0.4-0.3-0.8-0.5-1.3-0.7c-0.5-0.1-1.1-0.2-1.8-0.2c-0.6,0-1.2,0.1-1.8,0.2
	c-0.6,0.1-1.1,0.2-1.4,0.3v1.9h0.1c0.6-0.2,1.1-0.4,1.7-0.6c0.6-0.1,1-0.2,1.4-0.2c0.3,0,0.7,0,1,0.1c0.3,0,0.6,0.2,0.8,0.3
	c0.2,0.1,0.4,0.4,0.5,0.6c0.1,0.3,0.2,0.6,0.2,1.1v0.4c-0.9,0.1-1.8,0.1-2.6,0.2c-0.8,0.1-1.5,0.3-2.1,0.6c-0.7,0.3-1.1,0.8-1.5,1.3
	c-0.3,0.6-0.5,1.2-0.5,2c0,0.5,0.1,1,0.3,1.5c0.2,0.5,0.4,0.8,0.7,1.2c0.3,0.3,0.6,0.6,1,0.7c0.4,0.2,0.8,0.3,1.2,0.3
	c0.5,0,0.9,0,1.2-0.1c0.3-0.1,0.6-0.2,0.9-0.4c0.2-0.1,0.5-0.3,0.7-0.5c0.2-0.2,0.4-0.4,0.6-0.5V151z"/>
</svg>
